<svg width="76" height="65" viewBox="0 0 76 65" fill="none" xmlns="http://www.w3.org/2000/svg">
<path fill-rule="evenodd" clip-rule="evenodd" d="M11.7539 42.5898H18.5612L21.0215 58.4096C21.1487 59.2278 20.5178 59.9856 19.5746 60.1604L16.6319 60.7057C16.1064 60.803 15.6109 60.7171 15.1714 60.4523C14.7319 60.1875 14.4725 59.8171 14.4007 59.3614L11.7539 42.5898Z" fill="#F2F2F2"/>
<path fill-rule="evenodd" clip-rule="evenodd" d="M50.2759 20.0039C52.6771 20.0039 54.6415 21.6841 54.6415 23.7376V54.3696C54.6415 56.4232 52.6769 58.1033 50.2759 58.1033C48.0353 58.1033 46.1752 56.6402 45.9365 54.7757L45.9362 54.7756C39.8277 50.5977 30.173 47.3005 19.3285 46.2856V47.064H10.8506C5.69926 47.0641 1.48438 43.4593 1.48438 39.0536V39.0535C1.48438 34.6477 5.69911 31.043 10.8505 31.043H19.3283V31.8213C30.1727 30.8066 39.8222 27.5527 45.9309 23.3749L45.931 23.3748C46.1462 21.4898 48.0179 20.0039 50.2759 20.0039Z" fill="#F2F2F2"/>
<path fill-rule="evenodd" clip-rule="evenodd" d="M54.2139 34.7421V43.368C54.5759 43.4367 54.9522 43.4733 55.3386 43.4733C58.1916 43.4733 60.5045 41.4952 60.5045 39.0549C60.5045 36.6149 58.1916 34.6367 55.3386 34.6367C54.9521 34.6368 54.5759 34.6734 54.2139 34.7421Z" fill="#F2F2F2"/>
<path fill-rule="evenodd" clip-rule="evenodd" d="M19.3283 31.043H10.8505C5.69911 31.043 1.48438 34.6477 1.48438 39.0535V39.0536C1.48438 43.4594 5.69911 47.0641 10.8505 47.0641H19.3283V31.043Z" fill="#EB745E"/>
<path fill-rule="evenodd" clip-rule="evenodd" d="M50.2757 20.0039C52.6768 20.0039 54.6413 21.684 54.6414 23.7376V54.3696C54.6414 56.4232 52.6768 58.1033 50.2757 58.1033C47.8746 58.1033 45.9102 56.4231 45.9102 54.3696V23.7376C45.91 21.6841 47.8746 20.0039 50.2757 20.0039Z" fill="#EB745E"/>
<path fill-rule="evenodd" clip-rule="evenodd" d="M61.2353 48.5866L66.954 51.4104C67.8686 51.8621 69.0403 51.5886 69.5657 50.8065C70.0919 50.0232 69.7728 49.0228 68.8592 48.5717L63.1405 45.7479C62.2258 45.2962 61.0543 45.5696 60.5287 46.3518C60.0025 47.1351 60.3216 48.1355 61.2353 48.5866ZM63.1405 32.3571L68.8592 29.5333C69.7728 29.0821 70.0919 28.0817 69.5657 27.2985C69.0403 26.5164 67.8686 26.2429 66.954 26.6946L61.2353 29.5184C60.3216 29.9696 60.0025 30.97 60.5287 31.7533C61.0543 32.5354 62.2258 32.8087 63.1405 32.3571ZM66.3319 40.6978H72.5918C73.6544 40.6978 74.5157 39.9612 74.5157 39.0522C74.5157 38.1434 73.6544 37.4068 72.5918 37.4068H66.3319C65.2692 37.4068 64.408 38.1434 64.408 39.0522C64.408 39.9612 65.2692 40.6978 66.3319 40.6978Z" fill="#EB745E"/>
<path d="M19.5382 35.1316C29.5091 35.1316 37.5921 28.2185 37.5921 19.6908C37.5921 11.1631 29.5091 4.25 19.5382 4.25C9.56736 4.25 1.48438 11.1631 1.48438 19.6908C1.48438 28.2185 9.56736 35.1316 19.5382 35.1316Z" fill="#A2E19F"/>
<path fill-rule="evenodd" clip-rule="evenodd" d="M26.1249 20.2417L14.7329 25.8668C14.4969 25.9834 14.2267 25.9834 13.9907 25.8668C13.7547 25.7503 13.6196 25.5502 13.6196 25.3171V14.0668C13.6196 13.8337 13.7547 13.6336 13.9907 13.5171C14.2267 13.4006 14.4969 13.4006 14.7329 13.5171L26.1249 19.1423C26.3609 19.2588 26.496 19.4589 26.496 19.692C26.496 19.9249 26.3609 20.1251 26.1249 20.2417Z" fill="#E6E6E6"/>
</svg>
