<svg width="75" height="65" viewBox="0 0 75 65" fill="none" xmlns="http://www.w3.org/2000/svg">
<path fill-rule="evenodd" clip-rule="evenodd" d="M68.6591 33.7631H41.0287L60.5679 50.6973L58.4965 52.4925L38.9572 35.5584V59.5049H36.039V35.5584L16.4996 52.4925L14.4281 50.6973L33.9675 33.7631H6.33691V31.234H33.9675L14.4281 14.2998L16.4996 12.5046L36.039 29.4387V5.49219H38.9572V29.4387L58.4966 12.5046L60.5681 14.2998L41.0287 31.234H68.6591V33.7631Z" fill="#515151"/>
<path fill-rule="evenodd" clip-rule="evenodd" d="M15.4657 9.17947C18.1576 9.17947 20.3396 11.0707 20.3396 13.4036C20.3396 15.7366 18.1575 17.6277 15.4657 17.6277C12.7739 17.6277 10.5917 15.7365 10.5917 13.4036C10.5917 11.0707 12.7739 9.17947 15.4657 9.17947ZM64.4083 13.4036C64.4083 15.7366 62.2261 17.6277 59.5343 17.6277C56.8425 17.6277 54.6604 15.7365 54.6604 13.4036C54.6604 11.0707 56.8425 9.17947 59.5343 9.17947C62.2261 9.17947 64.4083 11.0707 64.4083 13.4036ZM68.6612 36.7241C65.9692 36.7241 63.7871 34.8329 63.7871 32.5C63.7871 30.167 65.9692 28.2759 68.6612 28.2759C71.353 28.2759 73.5352 30.1671 73.5352 32.5C73.5352 34.833 71.353 36.7241 68.6612 36.7241ZM42.374 5.49364C42.374 7.82666 40.1918 9.71788 37.5 9.71788C34.8081 9.71788 32.626 7.82666 32.626 5.49364C32.626 3.16075 34.8082 1.26953 37.5 1.26953C40.1919 1.26953 42.374 3.16075 42.374 5.49364ZM59.5343 55.8205C56.8425 55.8205 54.6604 53.9293 54.6604 51.5964C54.6604 49.2635 56.8425 47.3723 59.5343 47.3723C62.2261 47.3723 64.4083 49.2635 64.4083 51.5964C64.4083 53.9293 62.2261 55.8205 59.5343 55.8205ZM32.626 59.5064C32.626 57.1733 34.8082 55.2821 37.5 55.2821C40.1919 55.2821 42.374 57.1733 42.374 59.5064C42.374 61.8392 40.1918 63.7305 37.5 63.7305C34.8081 63.7305 32.626 61.8392 32.626 59.5064ZM10.5917 51.5964C10.5917 49.2635 12.7739 47.3723 15.4657 47.3723C18.1576 47.3723 20.3396 49.2635 20.3396 51.5964C20.3396 53.9293 18.1575 55.8205 15.4657 55.8205C12.7739 55.8205 10.5917 53.9293 10.5917 51.5964ZM6.33882 28.2759C9.03076 28.2759 11.2129 30.1671 11.2129 32.5C11.2129 34.833 9.03076 36.7241 6.33882 36.7241C3.64702 36.7241 1.46484 34.8329 1.46484 32.5C1.46484 30.167 3.64702 28.2759 6.33882 28.2759Z" fill="#FFD54F"/>
<path d="M51.0742 44.2717C58.5757 37.7704 58.5757 27.2296 51.0742 20.7283C43.5727 14.227 31.4104 14.227 23.9089 20.7283C16.4073 27.2296 16.4073 37.7704 23.9089 44.2717C31.4104 50.773 43.5727 50.773 51.0742 44.2717Z" fill="#43BDFD"/>
<path fill-rule="evenodd" clip-rule="evenodd" d="M46.1504 39.2356C46.1504 43.3766 28.8462 43.3766 28.8462 39.2356C28.8462 35.0945 32.7203 31.7373 37.4986 31.7373C42.2768 31.7375 46.1504 35.0946 46.1504 39.2356ZM33.4997 26.1213C33.4997 28.0354 35.29 29.587 37.4986 29.587C39.7071 29.587 41.4975 28.0354 41.4975 26.1213C41.4975 24.2077 39.7073 22.6563 37.4986 22.6563C35.2899 22.6561 33.4997 24.2077 33.4997 26.1213Z" fill="#E6E6E6"/>
<path fill-rule="evenodd" clip-rule="evenodd" d="M45.9499 37.625C44.7553 41.0098 30.9824 41.1196 28.9725 37.9542C28.8894 38.3711 28.8462 38.8 28.8462 39.2374C28.8462 43.3785 46.1504 43.3785 46.1504 39.2374C46.1504 38.6838 46.0813 38.1444 45.9499 37.625Z" fill="#CCCCCC"/>
</svg>
