<svg width="40" height="36" viewBox="0 0 40 36" fill="none" xmlns="http://www.w3.org/2000/svg">
<rect opacity="0.1" x="0.5" y="0.5" width="39" height="34.6258" rx="17.3129" stroke="white"/>
<path d="M27.7127 12.4747C27.0723 12.8771 26.3632 13.1848 25.6128 13.386C25.21 12.9736 24.6748 12.6812 24.0794 12.5486C23.484 12.4159 22.8572 12.4492 22.2838 12.6442C21.7104 12.8391 21.218 13.1862 20.8733 13.6384C20.5286 14.0907 20.3481 14.6263 20.3564 15.1729V15.7686C19.1811 15.7957 18.0165 15.5635 16.9664 15.0928C15.9163 14.622 15.0132 13.9273 14.3375 13.0704C14.3375 13.0704 11.6625 18.431 17.6813 20.8135C16.304 21.6462 14.6633 22.0637 13 22.0048C19.0188 24.9829 26.3752 22.0048 26.3752 15.1551C26.3746 14.9892 26.3567 14.8237 26.3217 14.6607C27.0042 14.0612 27.4859 13.3043 27.7127 12.4747Z" fill="white"/>
</svg>
