<svg width="40" height="36" viewBox="0 0 40 36" fill="none" xmlns="http://www.w3.org/2000/svg">
<path opacity="0.1" d="M17.8125 0.5H22.1875C31.7488 0.500217 39.4998 8.25117 39.5 17.8125C39.5 27.374 31.749 35.1258 22.1875 35.126H17.8125C8.25103 35.1258 0.5 27.374 0.5 17.8125C0.500219 8.25117 8.25117 0.500218 17.8125 0.5Z" stroke="white"/>
<path d="M23.3156 15.5156C24.4881 15.5156 25.6126 15.9305 26.4417 16.6689C27.2708 17.4074 27.7366 18.4089 27.7366 19.4532V24.0471H24.7893V19.4532C24.7893 19.1051 24.634 18.7713 24.3576 18.5251C24.0813 18.279 23.7064 18.1407 23.3156 18.1407C22.9247 18.1407 22.5499 18.279 22.2735 18.5251C21.9972 18.7713 21.8419 19.1051 21.8419 19.4532V24.0471H18.8945V19.4532C18.8945 18.4089 19.3603 17.4074 20.1894 16.6689C21.0185 15.9305 22.143 15.5156 23.3156 15.5156Z" fill="white"/>
<path d="M15.9474 16.1724H13V24.0475H15.9474V16.1724Z" fill="white"/>
<path d="M14.4737 14.2032C15.2876 14.2032 15.9474 13.6155 15.9474 12.8907C15.9474 12.1658 15.2876 11.5781 14.4737 11.5781C13.6598 11.5781 13 12.1658 13 12.8907C13 13.6155 13.6598 14.2032 14.4737 14.2032Z" fill="white"/>
</svg>
