<svg width="61" height="65" viewBox="0 0 61 65" fill="none" xmlns="http://www.w3.org/2000/svg">
<path fill-rule="evenodd" clip-rule="evenodd" d="M51.0396 33.6802C45.9631 33.6802 43.416 40.3136 47.0054 44.1849C47.6667 44.898 47.6667 46.0549 47.0054 46.7679L43.36 50.7C42.6986 51.4131 41.6262 51.4131 40.9652 50.7C37.3759 46.8286 31.2258 49.5758 31.2258 55.0512C31.2258 56.0602 30.4676 56.8775 29.5325 56.8775H24.3772C23.4423 56.8775 22.6839 56.0602 22.6839 55.0512C22.6839 49.5691 16.5383 46.8237 12.9445 50.7C12.2834 51.4131 11.2109 51.4131 10.5497 50.7L6.90415 46.7679C6.2429 46.0548 6.2429 44.898 6.90415 44.1849C10.4935 40.3136 7.9464 33.6802 2.87002 33.6802C1.93453 33.6802 1.17676 32.8623 1.17676 31.8538V26.2933C1.17676 25.2846 1.93453 24.4668 2.87002 24.4668C7.9464 24.4668 10.4935 17.8335 6.90415 13.9622C6.2429 13.249 6.2429 12.0923 6.90415 11.3792L10.5497 7.44707C11.2109 6.73385 12.2834 6.73385 12.9445 7.44707C16.5338 11.3185 22.6839 8.57124 22.6839 3.09588C22.6839 2.08686 23.4421 1.26953 24.3772 1.26953H29.5325C30.4676 1.26953 31.2258 2.08686 31.2258 3.09588C31.2258 8.57137 37.3757 11.3186 40.9652 7.44707C41.6263 6.73385 42.6987 6.73385 43.36 7.44707L47.0054 11.3792C47.6667 12.0923 47.6667 13.2491 47.0054 13.9622C43.4161 17.8336 45.9631 24.4668 51.0396 24.4668C51.9751 24.4668 52.7328 25.2847 52.7328 26.2933V31.8537C52.7328 32.8622 51.9751 33.6802 51.0396 33.6802Z" fill="#E6E6E6"/>
<path fill-rule="evenodd" clip-rule="evenodd" d="M36.1978 42.6094L39.4958 39.0521L45.2691 45.2791L41.971 48.8364L36.1978 42.6094Z" fill="#656565"/>
<path d="M38.75 41.8023C45.2673 34.7728 45.2673 23.3757 38.75 16.3461C32.2327 9.31658 21.6661 9.31658 15.1488 16.3461C8.63147 23.3757 8.63146 34.7728 15.1488 41.8023C21.6661 48.8319 32.2327 48.8319 38.75 41.8023Z" fill="#FFD54F"/>
<path d="M35.4744 38.2685C40.1823 33.1907 40.1823 24.9578 35.4744 19.8799C30.7665 14.802 23.1336 14.802 18.4257 19.8799C13.7178 24.9578 13.7178 33.1907 18.4257 38.2685C23.1336 43.3464 30.7665 43.3464 35.4744 38.2685Z" fill="#F2F2F2"/>
<path fill-rule="evenodd" clip-rule="evenodd" d="M41.331 47.2984L43.8515 44.5798C44.6841 43.6817 46.0464 43.6817 46.8789 44.5798L58.4614 57.0726C59.294 57.9707 59.294 59.4399 58.4614 60.338L55.9409 63.0566C55.1083 63.9546 53.7461 63.9546 52.9135 63.0566L41.331 50.5637C40.4984 49.6658 40.4984 48.1963 41.331 47.2984Z" fill="#515151"/>
</svg>
