<svg width="41" height="13" viewBox="0 0 41 13" fill="none" xmlns="http://www.w3.org/2000/svg">
<path d="M6.26273 3.03394C8.01629 3.03394 9.46368 4.48133 9.46368 6.23489C9.46368 8.01629 8.01629 9.43585 6.26273 9.43585C4.48133 9.43585 3.06178 8.01629 3.06178 6.23489C3.06178 4.48133 4.48133 3.03394 6.26273 3.03394ZM6.26273 8.32247C7.40394 8.32247 8.32247 7.40394 8.32247 6.23489C8.32247 5.09369 7.40394 4.17515 6.26273 4.17515C5.09369 4.17515 4.17515 5.09369 4.17515 6.23489C4.17515 7.40394 5.12152 8.32247 6.26273 8.32247ZM10.3265 2.92261C10.3265 2.50509 9.99253 2.17108 9.57502 2.17108C9.1575 2.17108 8.82349 2.50509 8.82349 2.92261C8.82349 3.34012 9.1575 3.67413 9.57502 3.67413C9.99253 3.67413 10.3265 3.34012 10.3265 2.92261ZM12.442 3.67413C12.4976 4.70401 12.4976 7.79362 12.442 8.82349C12.3863 9.82553 12.1636 10.6884 11.4399 11.4399C10.7162 12.1636 9.82553 12.3863 8.82349 12.442C7.79362 12.4976 4.70401 12.4976 3.67413 12.442C2.6721 12.3863 1.80923 12.1636 1.05771 11.4399C0.334012 10.6884 0.111337 9.82553 0.0556687 8.82349C0 7.79362 0 4.70401 0.0556687 3.67413C0.111337 2.6721 0.334012 1.7814 1.05771 1.05771C1.80923 0.334012 2.6721 0.111337 3.67413 0.0556687C4.70401 0 7.79362 0 8.82349 0.0556687C9.82553 0.111337 10.7162 0.334012 11.4399 1.05771C12.1636 1.7814 12.3863 2.6721 12.442 3.67413ZM11.1059 9.90903C11.4399 9.10183 11.3564 7.15343 11.3564 6.23489C11.3564 5.3442 11.4399 3.39579 11.1059 2.56076C10.8832 2.03191 10.4657 1.58656 9.93686 1.39172C9.10183 1.05771 7.15343 1.14121 6.26273 1.14121C5.3442 1.14121 3.39579 1.05771 2.58859 1.39172C2.03191 1.61439 1.61439 2.03191 1.39172 2.56076C1.05771 3.39579 1.14121 5.3442 1.14121 6.23489C1.14121 7.15343 1.05771 9.10183 1.39172 9.90903C1.61439 10.4657 2.03191 10.8832 2.58859 11.1059C3.39579 11.4399 5.3442 11.3564 6.26273 11.3564C7.15343 11.3564 9.10183 11.4399 9.93686 11.1059C10.4657 10.8832 10.9111 10.4657 11.1059 9.90903Z" fill="white"/>
<path d="M39.664 0C40.3876 0 41 0.612356 41 1.33605V11.1337C41 11.8853 40.3876 12.4698 39.664 12.4698H35.8228V8.23897H37.4372L37.7434 6.23489H35.8228V4.95451C35.8228 4.39783 36.1012 3.86897 36.964 3.86897H37.8269V2.17108C37.8269 2.17108 37.0475 2.03191 36.2682 2.03191C34.7094 2.03191 33.6796 3.00611 33.6796 4.73184V6.23489H31.926V8.23897H33.6796V12.4698H29.8663C29.1147 12.4698 28.5302 11.8853 28.5302 11.1337V1.33605C28.5302 0.612356 29.1147 0 29.8663 0H39.664Z" fill="white"/>
</svg>
