<svg width="1196" height="169" viewBox="0 0 1196 169" fill="none" xmlns="http://www.w3.org/2000/svg">
<mask id="mask0_771_4006" style="mask-type:alpha" maskUnits="userSpaceOnUse" x="0" y="0" width="1196" height="169">
<rect width="1196" height="168.332" rx="16" fill="#FFEAE0"/>
</mask>
<g mask="url(#mask0_771_4006)">
<path d="M1032.07 177.468C1033.18 178.476 1044.89 184.763 1063.9 193.674C1084.68 203.436 1113.57 218.386 1145.52 226.217C1157.66 229.175 1169.57 228.643 1175.05 222.251C1180.99 215.307 1180.62 203.423 1182.66 190.523C1184.41 179.528 1191.51 168.779 1203.69 165.875C1218.23 162.416 1235.63 164.995 1247.83 160.012C1272.97 149.652 1264.5 112.276 1267.91 83.3044C1269.41 70.5679 1275.7 60.2261 1285.98 55.5446C1296.87 50.6241 1310.98 50.1453 1324.97 49.6201C1473.15 44.2944 1392.39 -71.3391 1364.9 -7.57668C1358.98 6.20406 1354.72 26.2665 1333.96 35.3438C1311.66 45.0677 1272.04 45.0925 1258.66 69.3631C1251.31 82.6858 1247.71 98.4239 1234.99 107.449C1222.31 116.442 1201.41 117.214 1181.24 118.644C1162.05 119.99 1145.17 124.003 1133.17 130.753C1121.43 137.371 1111.78 144.86 1100.77 148.298C1075.49 156.202 1050.78 154.928 1037.88 158.935C1025.22 162.906 1022.31 168.655 1032.06 177.462L1032.07 177.468Z" fill="white"/>
<rect x="-90.3589" y="35.6299" width="132.507" height="105.122" rx="52.5612" stroke="white" stroke-opacity="0.4"/>
<rect x="0.5" y="-0.5" width="30.5225" height="24.6157" rx="12.3079" transform="matrix(1 0 0 -1 17.6152 52.4272)" stroke="white" stroke-opacity="0.34"/>
<path d="M641.116 -34.0317C641.379 -33.0006 646.283 -25.1019 654.892 -13.1615C664.297 -0.0928739 676.683 19.014 694.679 34.1939C701.524 39.9497 709.935 43.2472 716.837 40.5595C724.322 37.6334 729.934 29.39 737.696 21.1934C744.315 14.2089 754.477 9.03916 764.238 10.7947C775.893 12.8996 786.522 20.0119 797.33 20.3549C819.636 20.9945 832.28 -7.1787 848.905 -25.9496C856.217 -34.2006 865.624 -39.3408 874.964 -39.3842C884.838 -39.404 894.73 -35.3926 904.557 -31.4522C1008.56 10.4577 1010.35 -93.4745 960.093 -58.3045C949.24 -50.6988 936.432 -38.282 917.755 -38.4528C897.697 -38.6585 870.581 -50.821 849.455 -38.3305C837.856 -31.4751 827.628 -21.8158 814.476 -19.5511C801.363 -17.2981 786.683 -23.1953 772.179 -28.4175C758.388 -33.3956 744.863 -35.8384 733.323 -34.9101C722.024 -33.9934 711.728 -31.8362 702.504 -32.8668C681.307 -35.2336 665.035 -43.6994 654.229 -44.9255C643.614 -46.099 638.789 -43.0596 641.112 -34.0387L641.116 -34.0317Z" fill="white"/>
<path opacity="0.1" d="M755.04 106.481C757.578 103.903 761.216 103.029 764.671 103.244C768.044 103.454 771.058 104.69 772.542 106.168L772.681 106.312V106.312C774.221 107.972 774.36 110.192 774.363 112.589C774.365 113.743 774.336 114.965 774.481 116.054C774.619 117.086 774.923 118.101 775.631 118.917L775.778 119.077C776.466 119.787 777.598 120.169 778.739 120.446C779.903 120.729 781.319 120.951 782.646 121.21C784.009 121.476 785.334 121.791 786.465 122.27C787.525 122.718 788.359 123.287 788.898 124.04L789.003 124.193C789.874 125.547 790.171 126.814 790.077 127.938C789.983 129.065 789.49 130.11 788.675 131.01C787.135 132.71 784.463 133.859 781.417 133.9L780.803 133.894C779.837 133.86 778.958 133.787 778.113 133.721C777.276 133.655 776.465 133.596 775.674 133.598C774.166 133.601 772.714 133.825 771.133 134.628L770.814 134.796C769.78 135.366 768.994 136.204 768.3 137.105C767.953 137.557 767.619 138.037 767.289 138.516C766.956 138.999 766.626 139.482 766.271 139.964C764.911 141.809 763.227 143.583 760.161 144.52L759.859 144.607C756.741 145.478 753.831 145.048 751.593 143.965C749.474 142.939 748.021 141.366 747.496 139.826L747.403 139.52C747.192 138.709 747.047 137.751 746.84 136.66C746.639 135.6 746.386 134.453 745.964 133.392C745.541 132.327 744.934 131.308 744.001 130.534C743.117 129.801 741.987 129.326 740.552 129.199L740.261 129.179C736.807 128.991 734.232 126.749 733.44 124.194C733.047 122.925 733.094 121.585 733.676 120.358C734.221 119.21 735.262 118.105 736.969 117.248L737.319 117.08C739.294 116.176 741.626 116.272 743.973 116.516C745.112 116.634 746.285 116.791 747.329 116.848C748.243 116.898 749.148 116.88 749.951 116.665L750.289 116.561C751.758 116.041 752.681 115.271 753.225 114.3C753.752 113.357 753.871 112.312 753.912 111.356C753.956 110.343 753.918 109.487 754.051 108.618C754.16 107.901 754.38 107.267 754.832 106.714L755.04 106.481Z" stroke="white" stroke-width="1.5"/>
</g>
</svg>
